<?xml version="1.0"?>
<svg xmlns:rdf="http://www.w3.org/1999/02/22-rdf-syntax-ns#" xmlns="http://www.w3.org/2000/svg" xmlns:cc="http://web.resource.org/cc/" xmlns:xlink="http://www.w3.org/1999/xlink" xmlns:dc="http://purl.org/dc/elements/1.1/" xmlns:svg="http://www.w3.org/2000/svg" id="svg1" height="484.89pt" width="347.28pt">
  <g id="layer1">
    <g id="g1075" transform="translate(-153.97 -182.27)">
      <path id="path1061" d="m260.59 492.5l8.14-57 6.11-57.01 4.07-34.61 2.04-30.53 2.03-30.54 8.15-22.4c3.56-9.8 16.27-25.77 24.43-36.64 8.15-10.88 17.45-15.38 24.04-20.98s13.61-9.3 22.78-11.59c9.18-2.3 16.42-4.08 28.5-4.08 10.3 0 33.16 4.17 40.16 6.57 6.84 2.34 13.87 4.95 19.91 8.82 5.69 3.65 10.17 8.02 15.26 13.73 7.17 8.03 12.83 25.18 12.22 38.07l-2.04 42.75-4.58 32.57-3.56 22.4-5.09 30.54-6.11 28.5-6.11 34.61-4.58 22.9-4.58 27.48-2.04 12.22" stroke="#000" stroke-width="2.5" fill="none"/>
      <path id="path1683" d="m439.74 508.79l36.65 40.72 20.36 22.39 18.32 18.32 18.32 16.29 17.82 17.81c4.75 5.43 14.15 17.54 16.28 24.43 2.21 7.13-1.18 0.51 1.02 7.64 2.69 8.67-3.71 20.89-8.65 27.48s-10.05 13.17-17.3 16.8c-7.26 3.63-10.46 6.25-17.31 9.67s-17.4 6.69-26.47 8.14c-9.56 1.53-20.35 1.53-30.53 1.53-9.5 0.68-19-0.17-28.51 0.51h-30.53c-14.25-7.47-29.98-12.62-42.76-22.4l-34.61-26.46-26.46-32.58-15.27-21.37-15.27-23.42c-5.85-8.97-9.01-16.56-14.25-24.43l-12.22-18.32-14.25-18.32-14.25-20.36-16.28-20.36-20.36-24.43c-5.97-7.95-12.52-16.69-18.33-24.43-6.5-8.67-5.76-11.55-4.07-18.32 2.03-8.12 20.96-2.9 24.43-2.04l16.29 14.25 14.25 12.22 18.32 18.32 16.29 14.25 10.41 8.71" stroke="#000" stroke-width="2.25" fill="none"/>
      <rect id="rect1684" rx="8.3331" ry="8.3331" height="219.87" width="116.04" y="270.59" x="311.49" fill="#fff"/>
      <rect id="rect1685" fill-opacity=".46" rx="0" ry="0" transform="matrix(.99989 .015110 -.12460 .99221 0 0)" width="149.73" y="276.85" x="339.66" height="200.72"/>
      <rect id="rect1686" y="689.98" width="79.398" height="14.251" x="425.49"/>
      <rect id="rect1688" transform="matrix(.64764 .76195 -1 -.00052619 0 0)" height="151.38" width="3.6869" y="5.0057" x="671.3"/>
      <path id="path1689" d="m183.23 757.22a200.53 26.466 0 1 1 4.24 5.36"/>
      <path id="path1709" d="m293.16 527.11l73.29 97.72 44.79 38.68 118.08-2.03 6.11-22.4-101.79-109.93-140.48-2.04z" stroke="#000" stroke-width=".25pt" fill="none"/>
      <rect id="rect1710" fill-opacity=".41333" transform="matrix(1 -.00077406 -.74340 -.66885 0 0)" height="5.6261" width="139.22" y="-794.8" x="-292.14"/>
      <rect id="rect1711" fill-opacity=".41333" transform="matrix(.99943 -.033803 -.393 -.91954 0 0)" height="4.0424" width="55.439" y="-251.8" x="267.7"/>
      <rect id="rect1712" fill-opacity=".41333" transform="matrix(.99943 -.033803 -.393 -.91954 0 0)" height="4.0424" width="55.44" y="-261.51" x="263.88"/>
      <rect id="rect1713" fill-opacity=".41333" transform="matrix(.99964 -.026964 -.47234 -.88142 0 0)" height="3.3634" width="55.428" y="-280.14" x="234.26"/>
      <rect id="rect1715" fill-opacity=".41333" transform="matrix(1 -.00077406 -.74340 -.66885 0 0)" height="5.6261" width="139.22" y="-850.65" x="-304.22"/>
      <path id="path3931" d="m357.18 572.91a27.878 21.51 0 1 1 -55.75 0 27.878 21.51 0 1 1 55.75 0z" stroke-opacity=".42" transform="matrix(.92681 0 0 .61327 85.66 196.37)" stroke="#000" stroke-width="2.25" fill="none"/>
    </g>
  </g>
  <metadata>
    <rdf:RDF>
      <cc:Work>
        <dc:format>image/svg+xml</dc:format>
        <dc:type rdf:resource="http://purl.org/dc/dcmitype/StillImage"/>
        <cc:license rdf:resource="http://creativecommons.org/licenses/publicdomain/"/>
        <dc:publisher>
          <cc:Agent rdf:about="http://openclipart.org/">
            <dc:title>Openclipart</dc:title>
          </cc:Agent>
        </dc:publisher>
        <dc:title>handphone 2</dc:title>
        <dc:date>2009-04-03T02:19:37</dc:date>
        <dc:description>clip art, clipart, communication, communication, handset, handset, image, media, office, office, phone, phone, png, public domain, svg, telephony, telephony, </dc:description>
        <dc:source>http://openclipart.org/detail/23840/handphone-2-by-anonymous-23840</dc:source>
        <dc:creator>
          <cc:Agent>
            <dc:title>Anonymous</dc:title>
          </cc:Agent>
        </dc:creator>
        <dc:subject>
          <rdf:Bag>
            <rdf:li>clip art</rdf:li>
            <rdf:li>clipart</rdf:li>
            <rdf:li>communication</rdf:li>
            <rdf:li>handset</rdf:li>
            <rdf:li>image</rdf:li>
            <rdf:li>media</rdf:li>
            <rdf:li>office</rdf:li>
            <rdf:li>phone</rdf:li>
            <rdf:li>png</rdf:li>
            <rdf:li>public domain</rdf:li>
            <rdf:li>svg</rdf:li>
            <rdf:li>telephony</rdf:li>
          </rdf:Bag>
        </dc:subject>
      </cc:Work>
      <cc:License rdf:about="http://creativecommons.org/licenses/publicdomain/">
        <cc:permits rdf:resource="http://creativecommons.org/ns#Reproduction"/>
        <cc:permits rdf:resource="http://creativecommons.org/ns#Distribution"/>
        <cc:permits rdf:resource="http://creativecommons.org/ns#DerivativeWorks"/>
      </cc:License>
    </rdf:RDF>
  </metadata>
</svg>
